C:\Users\israe\Dropbox\PhDWork\ExperimentalData\subject9\055\P9S055W01_filtered35.mot
nRows=10
nColumns=28

name C:\Users\israe\Dropbox\PhDWork\ExperimentalData\subject9\055\P9S055W01_filtered35.mot
datacolumns 28
datarows 10
range 1.6800000000 1.6890000000
endheader
time	ground_force_1_vx	ground_force_1_vy	ground_force_1_vz	ground_force_1_px	ground_force_1_py	ground_force_1_pz	ground_moment_1_mx	ground_moment_1_my	ground_moment_1_mz	ground_force_2_vx	ground_force_2_vy	ground_force_2_vz	ground_force_2_px	ground_force_2_py	ground_force_2_pz	ground_moment_2_mx	ground_moment_2_my	ground_moment_2_mz	ground_force_3_vx	ground_force_3_vy	ground_force_3_vz	ground_force_3_px	ground_force_3_py	ground_force_3_pz	ground_moment_3_mx	ground_moment_3_my	ground_moment_3_mz
        1.6800000000	        0.0000000000	        0.0000000000	       -0.0000000000	        0.1988394961	        0.0000558755	       -0.3004071324	       -0.0000000000	       -0.0000000000	       -0.0000000000	      -30.4703518265	      428.4632550475	       90.1632406988	        0.2029003516	       -0.0000795827	        0.4543649445	       -7.2673825445	      -11.7288180639	       46.0555314311	       -0.2128500155	        0.5715318206	       -0.1727069587	        0.2076431971	        0.0000770316	        1.3583900146	        0.0587702503	       -0.0827074026	       -0.0798591374	
        1.6810000000	        0.0000000000	        0.0000000000	       -0.0000000000	        0.1988394961	        0.0000558755	       -0.3004071324	       -0.0000000000	       -0.0000000000	       -0.0000000000	      -29.7736126792	      421.0440642826	       89.0725064570	        0.2029003516	       -0.0000795827	        0.4543649445	       -7.3317661073	      -11.5840282491	       45.2900819873	       -0.3455216949	        1.6702345436	       -0.3210318568	        0.2076431971	        0.0000770316	        1.3583900146	        0.2714504782	       -0.1829828881	       -0.2237783424	
        1.6820000000	        0.0000000000	        0.0000000000	       -0.0000000000	        0.1988394961	        0.0000558755	       -0.3004071324	       -0.0000000000	       -0.0000000000	       -0.0000000000	      -29.0792549649	      413.6132078022	       87.9565122338	        0.2029003516	       -0.0000795827	        0.4543649445	       -7.3916165768	      -11.4351668899	       44.5242282361	       -0.5090984620	        3.1348768255	       -0.5099345601	        0.2076431971	        0.0000770316	        1.3583900146	        0.5597566539	       -0.3138357845	       -0.4151708095	
        1.6830000000	        0.0000000000	        0.0000000000	       -0.0000000000	        0.1988394961	        0.0000558755	       -0.3004071324	       -0.0000000000	       -0.0000000000	       -0.0000000000	      -28.3876669088	      406.1795364307	       86.8098818909	        0.2029003516	       -0.0000795827	        0.4543649445	       -7.4467383993	      -11.2814627535	       43.7580103361	       -0.7031061674	        5.0034547743	       -0.7411816616	        0.2076431971	        0.0000770316	        1.3583900146	        0.9328691647	       -0.4776588481	       -0.6588378858	
        1.6840000000	        0.0000000000	        0.0000000000	       -0.0000000000	        0.1988394961	        0.0000558755	       -0.3004071324	       -0.0000000000	       -0.0000000000	       -0.0000000000	      -27.6993769100	      398.7505887495	       85.6254652642	        0.2029003516	       -0.0000795827	        0.4543649445	       -7.4966711150	      -11.1220414067	       42.9913746394	       -0.9240358798	        7.2946505053	       -1.0134656549	        0.2076431971	        0.0000770316	        1.3583900146	        1.3964830365	       -0.6749329050	       -0.9570265830	
        1.6850000000	        0.0000000000	        0.0000000000	       -0.0000000000	        0.1988394961	        0.0000558755	       -0.3004071324	       -0.0000000000	       -0.0000000000	       -0.0000000000	      -27.0153392647	      391.3331955618	       84.3948274101	        0.2029003516	       -0.0000795827	        0.4543649445	       -7.5409033804	      -10.9561270668	       42.2246265831	       -1.1642311053	        9.9969625567	       -1.3210702368	        0.2076431971	        0.0000770316	        1.3583900146	        1.9506318386	       -0.9032772348	       -1.3080127042	
        1.6860000000	        0.0000000000	        0.0000000000	       -0.0000000000	        0.1988394961	        0.0000558755	       -0.3004071324	       -0.0000000000	       -0.0000000000	       -0.0000000000	      -26.3369107356	      383.9348282601	       83.1092781368	        0.2029003516	       -0.0000795827	        0.4543649445	       -7.5792946527	      -10.7832171510	       41.4585026917	       -1.4106311816	       13.0554775041	       -1.6523108431	        0.2076431971	        0.0000770316	        1.3583900146	        2.5870041437	       -1.1563146187	       -1.7043798879	
        1.6870000000	        0.0000000000	        0.0000000000	       -0.0000000000	        0.1988394961	        0.0000558755	       -0.3004071324	       -0.0000000000	       -0.0000000000	       -0.0000000000	      -25.6658041476	      376.5650063132	       81.7606582212	        0.2029003516	       -0.0000795827	        0.4543649445	       -7.6124358228	      -10.6030918447	       40.6937688589	       -1.6442833184	       16.3658286682	       -1.9891223709	        0.2076431971	        0.0000770316	        1.3583900146	        3.2875406622	       -1.4233409502	       -2.1322835870	
        1.6880000000	        0.0000000000	        0.0000000000	       -0.0000000000	        0.1988394961	        0.0000558755	       -0.3004071324	       -0.0000000000	       -0.0000000000	       -0.0000000000	      -25.0034016007	      369.2351800763	       80.3416722146	        0.2029003516	       -0.0000795827	        0.4543649445	       -7.6414512879	      -10.4156201748	       39.9309139509	       -1.8428501194	       19.7950773729	       -2.3104360151	        0.2076431971	        0.0000770316	        1.3583900146	        4.0281378910	       -1.6917355195	       -2.5743319288	
        1.6890000000	        0.0000000000	        0.0000000000	       -0.0000000000	        0.1988394961	        0.0000558755	       -0.3004071324	       -0.0000000000	       -0.0000000000	       -0.0000000000	      -24.3497688274	      361.9553683164	       78.8459126376	        0.2029003516	       -0.0000795827	        0.4543649445	       -7.6673975288	      -10.2205394833	       39.1701915062	       -1.9857371302	       23.2226891470	       -2.5982378014	        0.2076431971	        0.0000770316	        1.3583900146	        4.7863110808	       -1.9511266744	       -3.0149587161	
